<?xml version="1.0" standalone="no"?>
<!DOCTYPE svg PUBLIC "-//W3C//DTD SVG 20010904//EN"
 "http://www.w3.org/TR/2001/REC-SVG-20010904/DTD/svg10.dtd">
<svg version="1.0" xmlns="http://www.w3.org/2000/svg"
 width="180.000000pt" height="180.000000pt" viewBox="0 0 180.000000 180.000000"
 preserveAspectRatio="xMidYMid meet">
<metadata>
Created by potrace 1.14, written by Peter Selinger 2001-2017
</metadata>
<g transform="translate(0.000000,180.000000) scale(0.100000,-0.100000)"
fill="#000000" stroke="none">
<path d="M737 1454 c-4 -4 -7 -20 -7 -36 0 -28 0 -28 -65 -28 l-65 0 0 -30 0
-30 -125 0 -125 0 0 -100 0 -100 29 0 c26 0 30 -4 33 -32 3 -33 3 -33 66 -36
l62 -3 0 -124 0 -125 -30 0 -30 0 0 -65 0 -65 30 0 c27 0 30 -3 30 -30 0 -27
-3 -30 -30 -30 l-30 0 0 -160 0 -160 -30 0 c-26 0 -30 3 -30 29 0 32 -12 40
-47 33 -18 -3 -23 -11 -23 -33 0 -24 -4 -28 -32 -31 -18 -2 -34 -9 -34 -15 -1
-7 -2 -20 -3 -28 -1 -10 -12 -15 -31 -15 -28 0 -30 -3 -30 -35 l0 -35 65 0 65
0 0 -30 0 -30 515 0 515 0 0 30 c0 30 0 30 59 30 58 0 59 1 63 30 5 36 3 40
-34 40 -28 0 -28 1 -28 60 l0 60 -35 0 c-32 0 -35 -2 -35 -30 0 -27 -3 -30
-30 -30 -27 0 -30 3 -30 30 0 27 -3 30 -30 30 -27 0 -30 -3 -30 -30 0 -27 -3
-30 -30 -30 l-30 0 0 95 0 95 30 0 30 0 0 125 0 125 30 0 c28 0 30 3 30 35 0
33 2 35 35 35 l35 0 0 125 0 124 63 3 c62 3 62 3 65 36 3 28 7 32 33 32 l29 0
0 100 0 100 -130 0 -130 0 0 30 c0 30 0 30 -59 30 l-60 0 -3 33 -3 32 -220 3
c-121 2 -224 0 -228 -4z m381 -102 l3 -32 60 0 c59 0 59 0 59 -30 l0 -30 130
0 130 0 0 -30 c0 -27 -3 -30 -29 -30 -26 0 -30 -4 -33 -32 -3 -33 -3 -33 -65
-36 l-63 -3 0 -124 0 -124 -32 -3 c-29 -3 -33 -7 -36 -36 l-3 -32 -282 2 -282
3 -3 33 c-3 28 -7 32 -32 32 l-29 0 -3 127 -3 127 -62 -3 -63 -2 0 35 c0 33
-2 36 -30 36 -27 0 -30 3 -30 30 l0 30 125 0 125 0 0 30 0 30 65 0 65 0 0 29
c0 36 0 36 180 36 l135 -1 3 -32z m-518 -637 c0 -20 -5 -25 -25 -25 -20 0 -25
5 -25 25 0 20 5 25 25 25 20 0 25 -5 25 -25z m130 -5 c0 -28 3 -30 35 -30 l35
0 0 -65 0 -65 30 0 c27 0 30 -3 30 -30 l0 -30 100 0 100 0 0 30 c0 27 3 30 30
30 l30 0 0 -90 0 -90 -30 0 c-27 0 -30 3 -30 30 l0 30 -100 0 -100 0 0 -30 c0
-27 -3 -30 -30 -30 -27 0 -30 3 -30 30 l0 31 -97 -3 -98 -3 -3 -27 c-3 -22 -9
-28 -28 -28 l-24 0 0 125 0 125 30 0 c27 0 30 3 30 30 0 27 3 30 30 30 27 0
30 3 30 30 0 27 3 30 30 30 27 0 30 -3 30 -30z m320 -61 l0 -90 -27 3 c-22 2
-28 8 -28 28 0 22 -5 25 -37 28 -36 3 -38 2 -38 -27 0 -26 -4 -31 -25 -31 -25
0 -25 1 -25 90 l0 90 90 0 90 0 0 -91z m130 -29 l0 -60 -30 0 -30 0 0 60 0 60
30 0 30 0 0 -60z m-450 -290 c0 -27 -3 -30 -30 -30 -27 0 -30 3 -30 30 0 27 3
30 30 30 27 0 30 -3 30 -30z m260 0 c0 -27 -3 -30 -30 -30 -27 0 -30 3 -30 30
0 27 3 30 30 30 27 0 30 -3 30 -30z"/>
<path d="M682 1132 c-8 -2 -12 -26 -12 -68 l0 -64 65 0 65 0 0 35 c0 32 -2 35
-30 35 -26 0 -30 3 -30 29 0 22 -5 30 -23 33 -12 2 -28 3 -35 0z"/>
<path d="M1120 1068 l0 -68 65 0 65 0 0 35 c0 32 -2 35 -29 35 -26 0 -30 4
-33 32 -3 28 -7 31 -36 32 l-32 1 0 -67z"/>
<path d="M927 1063 c-4 -3 -7 -17 -7 -29 0 -17 -7 -23 -27 -26 -23 -2 -29 -8
-31 -35 l-3 -33 101 0 101 0 -3 33 c-3 28 -7 32 -35 35 -29 3 -33 7 -33 33 0
25 -4 29 -28 29 -16 0 -32 -3 -35 -7z"/>
</g>
</svg>
